<svg xmlns="http://www.w3.org/2000/svg" viewBox="0 0 200 200" width="200" height="200">
  <defs>
    <linearGradient id="bgGrad" x1="0%" y1="0%" x2="100%" y2="100%">
      <stop offset="0%" style="stop-color:#1a1a2e"/>
      <stop offset="50%" style="stop-color:#16213e"/>
      <stop offset="100%" style="stop-color:#0f3460"/>
    </linearGradient>
    <linearGradient id="accentGrad" x1="0%" y1="0%" x2="100%" y2="100%">
      <stop offset="0%" style="stop-color:#4fc3f7"/>
      <stop offset="100%" style="stop-color:#7c4dff"/>
    </linearGradient>
  </defs>

  <!-- Background circle -->
  <circle cx="100" cy="100" r="95" fill="url(#bgGrad)" stroke="url(#accentGrad)" stroke-width="3"/>

  <!-- Code brackets -->
  <g fill="none" stroke="#ffffff" stroke-width="6" stroke-linecap="round" stroke-linejoin="round">
    <!-- Left bracket < -->
    <polyline points="70,60 40,100 70,140" opacity="0.9"/>
    <!-- Right bracket > -->
    <polyline points="130,60 160,100 130,140" opacity="0.9"/>
  </g>

  <!-- AI neural nodes in center -->
  <g fill="url(#accentGrad)">
    <!-- Central node -->
    <circle cx="100" cy="100" r="12"/>
    <!-- Top node -->
    <circle cx="100" cy="65" r="8"/>
    <!-- Bottom node -->
    <circle cx="100" cy="135" r="8"/>
    <!-- Left node -->
    <circle cx="80" cy="115" r="6"/>
    <!-- Right node -->
    <circle cx="120" cy="115" r="6"/>
    <!-- Top left -->
    <circle cx="82" cy="80" r="5"/>
    <!-- Top right -->
    <circle cx="118" cy="80" r="5"/>
  </g>

  <!-- Neural connections -->
  <g stroke="url(#accentGrad)" stroke-width="2" opacity="0.7">
    <line x1="100" y1="88" x2="100" y2="73"/>
    <line x1="100" y1="112" x2="100" y2="127"/>
    <line x1="88" y1="100" x2="80" y2="109"/>
    <line x1="112" y1="100" x2="120" y2="109"/>
    <line x1="92" y1="92" x2="86" y2="84"/>
    <line x1="108" y1="92" x2="114" y2="84"/>
    <line x1="100" y1="73" x2="86" y2="84"/>
    <line x1="100" y1="73" x2="114" y2="84"/>
    <line x1="86" y1="84" x2="80" y2="109"/>
    <line x1="114" y1="84" x2="120" y2="109"/>
    <line x1="80" y1="115" x2="100" y2="127"/>
    <line x1="120" y1="115" x2="100" y2="127"/>
  </g>

  <!-- Pulse/wave effect around center -->
  <circle cx="100" cy="100" r="25" fill="none" stroke="url(#accentGrad)" stroke-width="1" opacity="0.4"/>
  <circle cx="100" cy="100" r="35" fill="none" stroke="url(#accentGrad)" stroke-width="1" opacity="0.2"/>
</svg>
