<?xml version="1.0" encoding="UTF-8"?>
<svg width="64px" height="64px" viewBox="0 0 64 64" version="1.1" xmlns="http://www.w3.org/2000/svg" xmlns:xlink="http://www.w3.org/1999/xlink">
    <!-- Generator: Sketch 62 (91390) - https://sketch.com -->
    <title>John_Guerra_Icon</title>
    <desc>Created with Sketch.</desc>
    <g id="John_Guerra_Icon" stroke="none" stroke-width="1" fill="none" fill-rule="evenodd">
        <g id="Group" transform="translate(4.000000, 11.000000)" stroke="#202020" stroke-width="2">
            <path d="M5.68434189e-14,16.6990185 C18.0503719,15.4351314 34.8245226,11.3548816 49.3171242,-1.77635684e-15" id="Path"></path>
            <path d="M29.4549393,17.1211944 C29.9330676,18.6324651 30.4111958,20.1437358 30.8893241,21.6550066" id="Path-5"></path>
            <path d="M32.9443324,26.5111247 C33.6713662,29.0881375 34.3983999,31.6651503 35.1254337,34.2421632" id="Path-6"></path>
            <path d="M35.1254337,8.34950926 C38.2714263,16.250973 39.6344122,21.514865 42.5517736,30.7079672 C42.941663,30.2946216 43.82316,32.4471113 45.1903411,30.7079672 C48.6068434,26.3619516 54.3537035,24.5288604 56.2156413,23.3573439 C55.0332323,19.5878711 54.5059378,9.46989167 50.6038879,9.46989167 C47.4907471,9.46989167 46.5826953,16.6104918 43.82316,18.222591" id="Path-3"></path>
            <path d="M19.4127859,14.4662498 C31.3494217,55.5360305 24.1885652,16.5612918 6.1324253,42.0689297" id="Path-2"></path>
        </g>
        <text id="2" transform="translate(56.500000, 7.000000) rotate(-24.000000) translate(-56.500000, -7.000000) " font-family="HelveticaNeue, Helvetica Neue" font-size="8" font-weight="normal" fill="#000000">
            <tspan x="54" y="10">2</tspan>
        </text>
    </g>
</svg>